<?xml version="1.0" standalone="no"?><!DOCTYPE svg PUBLIC "-//W3C//DTD SVG 1.1//EN" "http://www.w3.org/Graphics/SVG/1.1/DTD/svg11.dtd"><svg t="1705804640890" class="icon" viewBox="0 0 1024 1024" version="1.1" xmlns="http://www.w3.org/2000/svg" p-id="2621" xmlns:xlink="http://www.w3.org/1999/xlink" width="200" height="200"><path d="M972.638077 715.543837a473.107269 473.107269 0 0 0-21.101829-28.817851 598.240404 598.240404 0 0 0-22.778607-27.169493 432.281979 432.281979 0 0 0 20.30607-131.229219c0-240.035081-196.055175-435.322916-437.042325-435.322917-5.016125 0-9.98962 0.1421-14.977325 0.29841a735.764647 735.764647 0 0 0-15.858344-29.343621 526.067886 526.067886 0 0 0-17.606173-28.789431 500.830951 500.830951 0 0 1 48.441842-2.358858c274.309567 0 497.477394 222.286809 497.477394 495.516417a491.94971 491.94971 0 0 1-36.860703 187.216563zM321.593366 326.005495s56.356804 282.878188 324.172407 430.150482c33.976076-91.625989 92.634898-147.428603 123.854236-147.428603h0.90944c17.520913 0.611029 85.231495 53.912686 132.650217 113.594626 7.190253 9.065971 13.925786 18.259832 19.936611 27.453693 6.707113 10.2454 12.533208 20.50501 17.151452 30.49463 12.078488 26.302684 15.645194 50.900169 4.461936 69.77103-82.901057 71.788848-125.388915 113.807777-181.632039 113.807777-4.135106 0-8.341262-0.26999-12.661097-0.696289-13.556326-1.463629-28.078932-5.215065-44.235686-11.382199a371.06536 371.06536 0 0 1-37.358053-17.108823c-47.489773-24.696955-108.407982-65.650135-193.596847-125.388915C279.560228 644.991258 238.663888 520.739141 175.543131 337.799784c-6.138714-24.270656-11.964808-45.869834-16.853043-65.380145a749.804113 749.804113 0 0 1-8.696511-38.338542c-2.785157-14.323666-4.575615-27.496323-5.044545-39.87322C142.490704 128.472482 177.745679 85.046765 305.862911 6.721323a46.637174 46.637174 0 0 1 23.503317-6.536593c23.588577 0 46.750853 18.785601 68.008992 45.940884 6.437124 8.184952 12.689517 17.165663 18.728762 26.629514 5.669784 8.838611 11.112209 18.060892 16.369903 27.524742 23.886986 42.899947 43.155727 89.494491 54.694236 117.417113 28.689961 69.472621-165.574755 108.308512-165.574755 108.308512z m190.42802 637.630485c25.592185 0 50.6586-2.188338 75.057145-6.408703a1010.401044 1010.401044 0 0 0 38.509062 22.664927 543.872998 543.872998 0 0 0 39.446921 19.96503 497.704754 497.704754 0 0 1-153.013128 24.000666C237.697609 1023.8579 14.501362 801.571092 14.501362 528.327274a491.125531 491.125531 0 0 1 79.67539-268.682413c2.714107 13.286337 5.982404 27.226333 9.691211 41.990509 1.420999 5.683994 2.927257 11.481669 4.447725 17.449862 2.202548 8.525992 4.547195 17.535123 6.934473 26.842663A430.889401 430.889401 0 0 0 74.964851 528.327274c0 240.020871 196.069385 435.308706 437.056535 435.308706z" fill="#4C4D4E" p-id="2622"></path></svg>