<svg width="20" height="20" viewBox="0 0 20 20" fill="none" xmlns="http://www.w3.org/2000/svg">
<path fill-rule="evenodd" clip-rule="evenodd" d="M18.3333 10.0001C18.3333 5.39771 14.6024 1.66675 10 1.66675C5.39762 1.66675 1.66666 5.39771 1.66666 10.0001C1.66666 14.6025 5.39762 18.3334 10 18.3334C14.6024 18.3334 18.3333 14.6025 18.3333 10.0001ZM7.08333 8.33341C7.54357 8.33341 7.91666 7.96032 7.91666 7.50008C7.91666 7.03984 7.54357 6.66675 7.08333 6.66675C6.62309 6.66675 6.25 7.03984 6.25 7.50008C6.25 7.96032 6.62309 8.33341 7.08333 8.33341ZM10 2.91675C6.08798 2.91675 2.91666 6.08806 2.91666 10.0001C2.91666 13.9121 6.08798 17.0834 10 17.0834C13.912 17.0834 17.0833 13.9121 17.0833 10.0001C17.0833 6.08806 13.912 2.91675 10 2.91675ZM12.9167 8.33341C13.3769 8.33341 13.75 7.96032 13.75 7.50008C13.75 7.03984 13.3769 6.66675 12.9167 6.66675C12.4564 6.66675 12.0833 7.03984 12.0833 7.50008C12.0833 7.96032 12.4564 8.33341 12.9167 8.33341Z" fill="#4C4D4E"/>
<path d="M6 11H14V11C14 13.2091 12.2091 15 10 15V15C7.79086 15 6 13.2091 6 11V11Z" fill="#4C4D4E"/>
</svg>
