<?xml version="1.0" standalone="no"?><!DOCTYPE svg PUBLIC "-//W3C//DTD SVG 1.1//EN" "http://www.w3.org/Graphics/SVG/1.1/DTD/svg11.dtd"><svg t="1705398023922" class="icon" viewBox="0 0 1024 1024" version="1.1" xmlns="http://www.w3.org/2000/svg" p-id="3421" xmlns:xlink="http://www.w3.org/1999/xlink" width="200" height="200"><path d="M512 85.344c234.656 0 426.656 192 426.656 426.656s-192 426.656-426.656 426.656S85.344 746.656 85.344 512 277.344 85.344 512 85.344M512 0C230.4 0 0 230.4 0 512s230.4 512 512 512 512-230.4 512-512S793.6 0 512 0z m12.8 631.456c-25.6 0-51.2-8.544-72.544-29.856l-29.856-29.856c-8.544-8.544-8.544-21.344 0-29.856s21.344-8.544 29.856 0l29.856 29.856c25.6 25.6 64 25.6 85.344 0L729.6 409.6c12.8-12.8 17.056-25.6 17.056-42.656s-4.256-29.856-17.056-42.656l-29.856-29.856c-25.6-25.6-64-25.6-85.344 0-8.544 8.544-21.344 8.544-29.856 0s-8.544-21.344 0-29.856c38.4-38.4 106.656-38.4 145.056 0l29.856 29.856c21.344 21.344 29.856 46.944 29.856 72.544s-12.8 55.456-29.856 72.544l-162.144 162.144a99.904 99.904 0 0 1-72.544 29.856z m-157.856 157.888c-25.6 0-51.2-8.544-72.544-29.856l-29.856-29.856c-38.4-38.4-38.4-106.656 0-145.056l162.144-162.144c38.4-38.4 106.656-38.4 145.056 0l29.856 29.856c8.544 8.544 8.544 21.344 0 29.856s-21.344 8.544-29.856 0l-29.856-29.856c-25.6-25.6-64-25.6-85.344 0L294.4 614.432c-25.6 25.6-25.6 64 0 85.344l29.856 29.856c25.6 25.6 64 25.6 85.344 0 8.544-8.544 21.344-8.544 29.856 0s8.544 21.344 0 29.856c-17.056 21.344-46.944 29.856-72.544 29.856z" p-id="3422" fill="#4C4D4E"></path></svg>